<svg width="317" height="368" viewBox="0 0 317 368" fill="none" xmlns="http://www.w3.org/2000/svg">
<g filter="url(#filter0_d_71_365)">
<path d="M69.9516 352.002L70.5151 351.515C76.8908 346.01 83.5583 339.88 90.5522 333.033L91.9555 331.654C105.933 317.86 117.266 302.048 126.396 285.01L127.272 283.356L127.436 283.045L127.484 282.694C127.517 282.451 127.623 281.456 126.889 280.559C126.077 279.568 124.829 279.377 123.679 279.499L123.676 279.5C123.174 279.554 122.741 279.761 122.506 279.882C122.22 280.029 121.919 280.214 121.625 280.408C121.037 280.796 120.328 281.318 119.562 281.891C117.999 283.061 116.102 284.519 114.044 285.92C111.983 287.324 109.849 288.607 107.865 289.43C105.954 290.224 104.45 290.476 103.368 290.27L103.158 290.223C100.695 289.584 99.1681 287.452 99.563 284.619C99.9725 281.681 102.562 277.581 109.493 273.937C113.042 272.072 116.41 270.477 119.571 268.973C122.715 267.478 125.678 266.063 128.337 264.588C133.484 261.732 137.762 258.511 140.276 253.63L140.514 253.152L140.557 253.062L140.591 252.968C147.487 233.971 152.289 214.14 155.456 194.316L155.757 192.397L155.779 192.257L155.781 192.113C155.783 191.929 155.781 191.203 155.436 190.476C155.247 190.079 154.909 189.585 154.323 189.234C153.714 188.87 153.034 188.781 152.391 188.872V188.871C151.88 188.943 151.501 189.199 151.426 189.247C151.269 189.348 151.119 189.463 150.994 189.565C150.737 189.773 150.435 190.047 150.11 190.349C149.457 190.957 148.573 191.816 147.552 192.798C145.486 194.785 142.739 197.383 139.648 199.953C136.549 202.529 133.154 205.033 129.799 206.853C126.621 208.578 123.661 209.588 121.123 209.617L120.621 209.609C117.714 209.487 116.395 208.664 115.874 207.965C115.404 207.333 115.205 206.27 115.904 204.601C117.334 201.187 122.06 196.674 129.686 193.715C137.207 190.797 144 188.22 149.082 184.534C154.152 180.855 157.563 176.05 158.634 168.827L158.731 168.12L158.735 168.089L158.738 168.057C159.922 155.263 160.507 142.64 160.626 130.408L160.628 130.197L160.586 129.991C160.534 129.735 160.397 129.248 160.001 128.794C159.545 128.269 158.875 127.94 158.098 127.93L158.096 127.93L158.095 127.93C157.665 127.926 157.342 128.058 157.2 128.125C157.035 128.202 156.909 128.286 156.834 128.34C156.685 128.447 156.565 128.56 156.493 128.631C156.339 128.781 156.179 128.962 156.035 129.13C155.741 129.473 155.347 129.961 154.914 130.492C154.023 131.584 152.846 133.004 151.49 134.426C150.127 135.854 148.629 137.233 147.112 138.262C145.571 139.307 144.18 139.874 143.004 139.929C142.943 139.931 142.888 139.933 142.838 139.932C142.891 139.655 143.01 139.258 143.237 138.734C143.533 138.049 143.965 137.254 144.512 136.379C146.724 132.842 150.449 128.598 153.04 126.2L153.961 125.335C156.045 123.346 157.65 121.552 158.73 119.509C159.998 117.11 160.455 114.544 160.439 111.225V111.201L160.438 111.176C159.416 76.1924 154.867 45.8097 150.225 26.2664C147.918 16.5529 145.546 9.3346 143.497 5.58185C142.981 4.63883 142.426 3.79788 141.818 3.18048C141.273 2.62769 140.284 1.84959 138.971 2.02618C137.608 2.20967 136.875 3.27811 136.517 4.01837C136.128 4.82372 135.874 5.84868 135.698 6.992C134.478 14.8997 130.269 27.1491 123.5 42.4149C116.752 57.6336 107.524 75.7089 96.3676 95.2176L96.3667 95.2205C95.8456 96.1352 95.6454 97.1674 95.853 98.3748C96.0426 99.4777 96.5644 100.684 97.353 102.073C98.9331 104.856 101.953 108.995 107.095 115.547L107.543 116.133C112.103 122.238 114.227 129.796 114.165 135.468C114.132 138.428 113.508 140.585 112.625 141.777C112.208 142.341 111.766 142.649 111.318 142.795C110.925 142.922 110.396 142.966 109.684 142.795L109.368 142.708C107.709 142.198 105.913 140.49 104.111 137.581C102.356 134.75 100.811 131.136 99.4926 127.43C98.1797 123.737 97.1195 120.03 96.3159 117.046C95.9129 115.549 95.5804 114.256 95.3051 113.212C95.0457 112.228 94.8125 111.364 94.6303 110.88C94.2675 109.916 93.7235 109.067 92.8989 108.531C92.026 107.963 91.1073 107.918 90.3794 108.07C89.7003 108.212 89.1641 108.526 88.8432 108.746C88.6724 108.863 88.5341 108.975 88.4341 109.06C88.3835 109.104 88.341 109.141 88.3081 109.172C88.2916 109.187 88.2771 109.2 88.2651 109.212L88.2378 109.239L89.644 110.661L88.2368 109.24L88.0581 109.418L87.9282 109.633C80.1217 122.661 71.5628 136.142 62.4106 149.684L61.4878 151.05L61.7055 151.269C61.5895 151.751 61.5426 152.28 61.5825 152.872C61.6627 154.061 62.0886 155.434 62.8178 157.12C64.2813 160.503 67.2823 165.837 72.688 174.764L73.1723 175.581C78.096 184.054 80.5338 193.701 80.561 200.325C80.568 202.021 80.4156 203.46 80.1372 204.596C79.8537 205.754 79.4723 206.466 79.1206 206.85C78.825 207.173 78.5486 207.282 78.1821 207.268C77.7218 207.251 76.9348 207.023 75.7788 206.204C73.4496 204.553 71.3041 201.891 69.3755 198.57C67.4578 195.268 65.8231 191.435 64.4643 187.574C61.7456 179.849 60.1962 172.203 59.6753 168.912L59.6762 168.911C59.39 167.102 58.9363 165.704 58.2475 164.718C57.4865 163.628 56.4045 163.018 55.1821 163.058C54.1403 163.093 53.3295 163.595 52.9008 163.911C52.7619 164.013 52.6393 164.115 52.5346 164.207L52.3354 164.273L51.9575 164.808C39.9542 181.778 27.1112 198.615 13.7221 214.562L13.7212 214.563C13.719 214.566 13.7169 214.569 13.7143 214.572C13.7091 214.578 13.7024 214.585 13.6958 214.594C13.6823 214.61 13.6658 214.631 13.6469 214.655C13.6093 214.703 13.5612 214.766 13.5053 214.844C13.3934 214.999 13.2487 215.213 13.0883 215.484C12.7679 216.026 12.3813 216.801 12.0747 217.788C11.4542 219.785 11.1813 222.591 12.3579 225.965C12.9622 227.7 14.1881 229.718 15.6577 231.897C17.1445 234.102 19.0327 236.686 21.0424 239.525C25.098 245.254 29.8284 252.266 33.726 260.525L34.0532 261.254C35.622 264.921 36.1593 268.92 35.9653 272.596C35.7569 276.545 34.7159 279.949 33.3911 282.059C32.7253 283.12 32.0752 283.715 31.5639 283.978C31.1337 284.2 30.7922 284.205 30.3969 284.016C29.9044 283.782 29.1598 283.151 28.3169 281.683C27.4859 280.236 26.646 278.125 25.8852 275.188V275.187C22.6942 262.872 18.3114 252.016 14.5132 244.022C12.6134 240.024 10.8542 236.73 9.45554 234.317C8.75685 233.112 8.14243 232.116 7.64011 231.357C7.17238 230.65 6.71624 230.015 6.34616 229.644L6.34518 229.643C5.78755 229.085 5.12318 228.702 4.37839 228.548C3.6463 228.396 2.97281 228.494 2.42429 228.676C1.3893 229.018 0.615646 229.717 0.231903 230.105L0.20163 230.136L0.172333 230.168C0.0525095 230.3 -0.0639383 230.431 -0.172394 230.553L-0.171417 230.554C-0.67215 231.111 -1.18042 231.691 -1.65091 232.221L-2.15579 232.789V352.002H69.9516Z" fill="url(#paint0_linear_71_365)" stroke="white" stroke-width="4"/>
<path d="M188.932 352.002L189.496 351.514C198.191 343.994 206.466 336.002 214.305 327.715L215.867 326.054L215.964 325.949L216.046 325.832C216.152 325.681 216.558 325.08 216.682 324.286C216.75 323.853 216.75 323.253 216.463 322.634C216.165 321.988 215.653 321.53 215.068 321.243L215.067 321.244C214.605 321.017 214.152 321.014 214.063 321.012C213.875 321.007 213.686 321.017 213.525 321.031C213.196 321.059 212.792 321.114 212.353 321.18C211.472 321.315 210.257 321.529 208.861 321.765C206.034 322.244 202.302 322.844 198.3 323.227C194.289 323.611 190.072 323.769 186.275 323.385C182.678 323.02 179.663 322.188 177.549 320.782L177.138 320.493C174.805 318.756 174.179 317.333 174.142 316.462C174.109 315.675 174.541 314.684 176.058 313.698C179.162 311.681 185.609 310.614 193.577 312.463C201.435 314.287 208.5 315.982 214.775 315.797C221.037 315.612 226.561 313.562 231.513 308.196L231.991 307.667L232.032 307.618C239.703 298.331 246.854 288.872 253.475 279.451L254.792 277.567L254.918 277.387L255.001 277.183C255.098 276.949 255.255 276.472 255.184 275.877C255.102 275.19 254.736 274.544 254.105 274.098L254.098 274.094C253.743 273.846 253.4 273.774 253.245 273.749C253.065 273.72 252.914 273.718 252.822 273.721C252.638 273.725 252.476 273.752 252.376 273.769C252.166 273.807 251.932 273.867 251.718 273.925C251.283 274.043 250.682 274.224 250.025 274.419C248.674 274.819 246.902 275.331 244.98 275.742C243.049 276.155 241.035 276.451 239.202 276.447C237.34 276.443 235.871 276.129 234.869 275.513C234.817 275.48 234.77 275.45 234.73 275.423C234.93 275.223 235.251 274.962 235.733 274.656C236.363 274.257 237.168 273.842 238.113 273.428C241.933 271.75 247.402 270.34 250.893 269.817L252.143 269.621C254.984 269.15 257.321 268.571 259.363 267.491C261.611 266.302 263.353 264.589 265.091 262.111L265.44 261.605L265.454 261.586L265.466 261.565C284.319 232.08 297.667 204.409 304.834 185.644C308.397 176.318 310.501 169.017 310.92 164.762C311.026 163.692 311.039 162.684 310.884 161.832C310.746 161.069 310.367 159.868 309.182 159.275C307.952 158.659 306.745 159.13 306.033 159.541C305.258 159.987 304.47 160.691 303.68 161.537C298.218 167.387 287.843 175.14 273.653 183.944C259.507 192.721 241.703 202.462 221.499 212.305L218.977 213.533L219.561 214.118C219.467 214.278 219.379 214.447 219.297 214.626C218.833 215.644 218.585 216.935 218.455 218.527C218.193 221.717 218.359 226.838 218.919 235.146C219.45 243.013 216.894 250.787 213.544 255.59C211.85 258.018 210.12 259.449 208.72 259.937C208.058 260.168 207.519 260.174 207.067 260.042C206.614 259.909 206.076 259.588 205.504 258.873H205.503C204.419 257.518 203.899 255.094 204.047 251.676C204.192 248.348 204.948 244.492 205.946 240.686C206.94 236.896 208.151 233.237 209.167 230.318C209.677 228.854 210.13 227.598 210.491 226.58C210.83 225.621 211.124 224.775 211.246 224.272C211.488 223.271 211.516 222.265 211.136 221.357C210.735 220.397 210.002 219.841 209.315 219.556C208.674 219.291 208.055 219.249 207.665 219.25C207.458 219.251 207.281 219.265 207.15 219.279C207.084 219.286 207.028 219.293 206.984 219.3C206.962 219.303 206.942 219.307 206.925 219.309C206.917 219.311 206.91 219.312 206.904 219.313C206.901 219.314 206.897 219.314 206.894 219.314C206.893 219.315 206.891 219.315 206.889 219.315L206.887 219.316L207.249 221.283L206.885 219.316L206.638 219.362L206.41 219.468C192.62 225.838 177.958 232.162 162.768 238.2L162.765 238.201C161.803 238.585 160.955 239.226 160.288 240.362C159.684 241.39 159.262 242.764 158.915 244.568C158.22 248.188 157.698 254.286 157.139 264.707L157.08 265.654C156.376 275.43 152.958 284.775 149.25 290.264C148.301 291.67 147.366 292.774 146.496 293.556C145.609 294.354 144.892 294.726 144.385 294.846C143.959 294.946 143.671 294.88 143.375 294.663C143.005 294.39 142.483 293.759 141.989 292.43C140.994 289.754 140.719 286.346 140.995 282.516C141.269 278.708 142.077 274.62 143.127 270.664C145.23 262.748 148.256 255.557 149.679 252.544C150.461 250.888 150.874 249.477 150.86 248.274C150.845 246.945 150.293 245.833 149.26 245.178C148.38 244.619 147.427 244.577 146.895 244.597C146.743 244.603 146.601 244.615 146.475 244.63L146.272 244.561L145.611 244.807C126.136 252.072 106.043 258.755 86.0005 264.392L85.4956 264.535L85.4389 264.592C85.2981 264.648 85.1345 264.716 84.9536 264.801C84.3843 265.068 83.6286 265.491 82.8198 266.135C81.1833 267.436 79.3778 269.602 78.4487 273.052V273.053C77.9724 274.826 77.8487 277.184 77.8364 279.812C77.8239 282.471 77.9294 285.67 77.9917 289.147C78.1173 296.164 78.0774 304.623 76.6479 313.641C75.979 317.858 74.0805 321.754 71.7016 324.878C69.3064 328.023 66.5298 330.25 64.2466 331.249C63.0991 331.751 62.2265 331.877 61.6557 331.806C61.1756 331.747 60.8899 331.559 60.6694 331.18C60.3948 330.709 60.1352 329.769 60.2651 328.082C60.3932 326.418 60.8875 324.201 61.9126 321.346L61.9135 321.345C66.211 309.37 68.7011 297.93 70.063 289.185C70.7441 284.812 71.1446 281.099 71.3471 278.318C71.4483 276.929 71.5009 275.76 71.5132 274.849C71.5246 274.002 71.5056 273.221 71.4087 272.706V272.705C71.2622 271.929 70.9289 271.238 70.3999 270.691C69.8799 270.154 69.2678 269.856 68.7124 269.697C67.6645 269.397 66.6321 269.539 66.0971 269.643L66.0395 269.655L65.9819 269.67C65.9115 269.688 65.8391 269.706 65.7573 269.726C65.6849 269.744 65.6046 269.765 65.5229 269.786C37.5536 276.624 15.7677 285.807 -1.15872 295.617L-2.15579 296.195V352.002H188.932Z" fill="url(#paint1_linear_71_365)" stroke="white" stroke-width="4"/>
</g>
<defs>
<filter id="filter0_d_71_365" x="-8.15579" y="0" width="325.156" height="368.002" filterUnits="userSpaceOnUse" color-interpolation-filters="sRGB">
<feFlood flood-opacity="0" result="BackgroundImageFix"/>
<feColorMatrix in="SourceAlpha" type="matrix" values="0 0 0 0 0 0 0 0 0 0 0 0 0 0 0 0 0 0 127 0" result="hardAlpha"/>
<feOffset dy="10"/>
<feGaussianBlur stdDeviation="2"/>
<feComposite in2="hardAlpha" operator="out"/>
<feColorMatrix type="matrix" values="0 0 0 0 0 0 0 0 0 0 0 0 0 0 0 0 0 0 0.7 0"/>
<feBlend mode="normal" in2="BackgroundImageFix" result="effect1_dropShadow_71_365"/>
<feBlend mode="normal" in="SourceGraphic" in2="effect1_dropShadow_71_365" result="shape"/>
</filter>
<linearGradient id="paint0_linear_71_365" x1="110.323" y1="143.348" x2="57.767" y2="270.845" gradientUnits="userSpaceOnUse">
<stop stop-color="#1F89E9"/>
<stop offset="1" stop-color="#114D83"/>
</linearGradient>
<linearGradient id="paint1_linear_71_365" x1="208.881" y1="250.693" x2="64.3564" y2="342.519" gradientUnits="userSpaceOnUse">
<stop offset="0.254808" stop-color="#9DB626"/>
<stop offset="1" stop-color="#455011"/>
</linearGradient>
</defs>
</svg>
