<svg width="849" height="348" viewBox="0 0 849 348" fill="none" xmlns="http://www.w3.org/2000/svg">
<path d="M64.6042 139.506C80.8477 103.057 98.9034 77.725 117.737 77.725C128.492 77.725 138.862 83.8577 148.643 93.9376C157.511 77.7703 167.781 65.5573 178.589 65.5573C195.518 65.5573 210.435 87.7831 219.864 106.116C224.561 100.714 229.543 97.3537 234.674 97.3537C251.486 97.3537 265.874 124.127 272.753 139.506H64.6042Z" fill="url(#paint0_linear_77_2)"/>
<path d="M386.07 257.791C422.196 176.73 462.354 120.39 504.238 120.39C528.158 120.39 551.221 134.027 572.975 156.445C592.697 120.487 615.54 93.3268 639.577 93.3268C677.225 93.3268 710.404 142.757 731.372 183.531C741.818 171.516 752.9 164.044 764.309 164.044C801.7 164.044 833.699 223.586 849 257.791H386.07Z" fill="url(#paint1_linear_77_2)"/>
<path d="M563.314 277.262C544.706 235.506 524.019 206.484 502.442 206.484C490.12 206.484 478.24 213.508 467.033 225.058C456.875 206.535 445.107 192.544 432.725 192.544C413.332 192.544 396.24 218.006 385.439 239.011C380.058 232.822 374.35 228.972 368.473 228.972C349.212 228.972 332.727 259.645 324.846 277.264L563.314 277.262Z" fill="url(#paint2_linear_77_2)"/>
<path d="M238.469 347.468C219.86 305.712 199.173 276.69 177.596 276.69C165.274 276.69 153.395 283.714 142.188 295.264C132.03 276.74 120.261 262.75 107.879 262.75C88.4863 262.75 71.3947 288.212 60.5936 309.216C55.2129 303.028 49.5042 299.178 43.627 299.178C24.3661 299.178 7.88162 329.851 1.52588e-05 347.47L238.469 347.468Z" fill="url(#paint3_linear_77_2)"/>
<path d="M54.0675 80.5598C62.993 60.5305 72.917 46.6086 83.267 46.6086C89.1768 46.6086 94.8763 49.9776 100.252 55.5177C105.125 46.6321 110.768 39.9213 116.709 39.9213C126.011 39.9213 134.21 52.136 139.391 62.2105C141.972 59.242 144.71 57.3953 147.53 57.3953C156.769 57.3953 164.676 72.1073 168.457 80.5598H54.0675Z" fill="url(#paint4_linear_77_2)"/>
<path fill-rule="evenodd" clip-rule="evenodd" d="M175.543 39.7851L168.68 40.751L175.543 41.7188L177.19 49.2633L178.326 41.7188L185.702 40.751L178.326 39.7851L177.19 32.2405L175.543 39.7851Z" fill="url(#paint5_linear_77_2)"/>
<path fill-rule="evenodd" clip-rule="evenodd" d="M463.039 249.942L462.104 250.075L463.039 250.205L463.264 251.234L463.418 250.205L464.424 250.075L463.418 249.942L463.264 248.915L463.039 249.942Z" fill="url(#paint6_linear_77_2)"/>
<path fill-rule="evenodd" clip-rule="evenodd" d="M594.909 174.202L585.263 175.559L594.909 176.918L597.224 187.52L598.822 176.918L609.185 175.559L598.822 174.202L597.224 163.598L594.909 174.202Z" fill="url(#paint7_linear_77_2)"/>
<path fill-rule="evenodd" clip-rule="evenodd" d="M837.218 136.519L833.588 137.032L837.218 137.543L838.09 141.534L838.692 137.543L842.594 137.032L838.692 136.519L838.09 132.528L837.218 136.519Z" fill="url(#paint8_linear_77_2)"/>
<path fill-rule="evenodd" clip-rule="evenodd" d="M746.079 56.8077L739.216 57.7736L746.079 58.7414L747.726 66.2859L748.863 58.7414L756.239 57.7736L748.863 56.8077L747.726 49.2632L746.079 56.8077Z" fill="url(#paint9_linear_77_2)"/>
<path fill-rule="evenodd" clip-rule="evenodd" d="M99.4832 81.306L96.5347 81.721L99.4832 82.136L100.192 85.3782L100.679 82.136L103.847 81.721L100.679 81.306L100.192 78.0638L99.4832 81.306Z" fill="url(#paint10_linear_77_2)"/>
<path fill-rule="evenodd" clip-rule="evenodd" d="M38.8825 160.367L35.9339 160.782L38.8825 161.197L39.5911 164.439L40.0786 161.197L43.2483 160.782L40.0786 160.367L39.5911 157.125L38.8825 160.367Z" fill="url(#paint11_linear_77_2)"/>
<path fill-rule="evenodd" clip-rule="evenodd" d="M31.5699 31.8254L28.6214 32.2404L31.5699 32.6554L32.2767 35.8976L32.7661 32.6554L35.9339 32.2404L32.7661 31.8254L32.2767 28.5832L31.5699 31.8254Z" fill="url(#paint12_linear_77_2)"/>
<path fill-rule="evenodd" clip-rule="evenodd" d="M514.767 170.316L511.818 170.731L514.767 171.146L515.476 174.388L515.963 171.146L519.133 170.731L515.963 170.316L515.476 167.074L514.767 170.316Z" fill="url(#paint13_linear_77_2)"/>
<path fill-rule="evenodd" clip-rule="evenodd" d="M613.172 15.4806L610.223 15.8956L613.172 16.3106L613.879 19.5528L614.368 16.3106L617.536 15.8956L614.368 15.4806L613.879 12.2384L613.172 15.4806Z" fill="url(#paint14_linear_77_2)"/>
<path fill-rule="evenodd" clip-rule="evenodd" d="M246.805 237.452L243.855 237.869L246.805 238.284L247.512 241.524L248.001 238.284L251.169 237.869L248.001 237.452L247.512 234.212L246.805 237.452Z" fill="url(#paint15_linear_77_2)"/>
<path fill-rule="evenodd" clip-rule="evenodd" d="M684.605 78.7816L681.656 79.1966L684.605 79.6116L685.311 82.8538L685.801 79.6116L688.969 79.1966L685.801 78.7816L685.311 75.5394L684.605 78.7816Z" fill="url(#paint16_linear_77_2)"/>
<path fill-rule="evenodd" clip-rule="evenodd" d="M795.661 15.4806L792.712 15.8956L795.661 16.3106L796.368 19.5528L796.857 16.3106L800.025 15.8956L796.857 15.4806L796.368 12.2384L795.661 15.4806Z" fill="url(#paint17_linear_77_2)"/>
<path fill-rule="evenodd" clip-rule="evenodd" d="M499.745 7.08601L493.299 7.99215L499.745 8.9001L501.293 15.9861L502.36 8.9001L509.287 7.99215L502.36 7.08601L501.293 0L499.745 7.08601Z" fill="url(#paint18_linear_77_2)"/>
<path fill-rule="evenodd" clip-rule="evenodd" d="M323.814 197.649L317.368 198.557L323.814 199.465L325.362 206.549L326.43 199.465L333.356 198.557L326.43 197.649L325.362 190.563L323.814 197.649Z" fill="url(#paint19_linear_77_2)"/>
<path fill-rule="evenodd" clip-rule="evenodd" d="M255.154 27.4125L251.729 27.8945L255.154 28.3766L255.975 32.1407L256.543 28.3766L260.221 27.8945L256.543 27.4125L255.975 23.6484L255.154 27.4125Z" fill="url(#paint20_linear_77_2)"/>
<path fill-rule="evenodd" clip-rule="evenodd" d="M35.1129 96.029L31.6877 96.5111L35.1129 96.9931L35.9339 100.757L36.5011 96.9931L40.1801 96.5111L36.5011 96.029L35.9339 92.2649L35.1129 96.029Z" fill="url(#paint21_linear_77_2)"/>
<path fill-rule="evenodd" clip-rule="evenodd" d="M82.3499 11.7563L78.9247 12.2384L82.3499 12.7204L83.1709 16.4845L83.7381 12.7204L87.4171 12.2384L83.7381 11.7563L83.1709 7.99219L82.3499 11.7563Z" fill="url(#paint22_linear_77_2)"/>
<path fill-rule="evenodd" clip-rule="evenodd" d="M107.272 31.7584L103.847 32.2404L107.272 32.7225L108.093 36.4866L108.661 32.7225L112.34 32.2404L108.661 31.7584L108.093 27.9943L107.272 31.7584Z" fill="url(#paint23_linear_77_2)"/>
<path fill-rule="evenodd" clip-rule="evenodd" d="M294.517 75.1245L291.568 75.5395L294.517 75.9563L295.226 79.1967L295.713 75.9563L298.881 75.5395L295.713 75.1245L295.226 71.8842L294.517 75.1245Z" fill="url(#paint24_linear_77_2)"/>
<path fill-rule="evenodd" clip-rule="evenodd" d="M239.402 290.445L236.453 290.86L239.402 291.275L240.111 294.517L240.598 291.275L243.766 290.86L240.598 290.445L240.111 287.205L239.402 290.445Z" fill="url(#paint25_linear_77_2)"/>
<path fill-rule="evenodd" clip-rule="evenodd" d="M363.485 259.75L360.535 260.165L363.485 260.581L364.192 263.823L364.681 260.581L367.849 260.165L364.681 259.75L364.192 256.508L363.485 259.75Z" fill="url(#paint26_linear_77_2)"/>
<path fill-rule="evenodd" clip-rule="evenodd" d="M417.622 160.367L414.673 160.782L417.622 161.197L418.33 164.439L418.818 161.197L421.985 160.782L418.818 160.367L418.33 157.125L417.622 160.367Z" fill="url(#paint27_linear_77_2)"/>
<path fill-rule="evenodd" clip-rule="evenodd" d="M522.005 217.06L519.057 217.475L522.005 217.89L522.714 221.132L523.201 217.89L526.369 217.475L523.201 217.06L522.714 213.818L522.005 217.06Z" fill="url(#paint28_linear_77_2)"/>
<path fill-rule="evenodd" clip-rule="evenodd" d="M341.852 16.0694L338.902 16.4844L341.852 16.8994L342.559 20.1416L343.048 16.8994L346.216 16.4844L343.048 16.0694L342.559 12.829L341.852 16.0694Z" fill="url(#paint29_linear_77_2)"/>
<defs>
<linearGradient id="paint0_linear_77_2" x1="168.679" y1="130.031" x2="168.679" y2="23.1723" gradientUnits="userSpaceOnUse">
<stop offset="0.000600962" stop-color="#0F15C7" stop-opacity="0"/>
<stop offset="1" stop-color="#00DFFF"/>
</linearGradient>
<linearGradient id="paint1_linear_77_2" x1="617.536" y1="236.718" x2="617.536" y2="-0.938904" gradientUnits="userSpaceOnUse">
<stop offset="0.000600962" stop-color="#0F15C7" stop-opacity="0"/>
<stop offset="1" stop-color="#00DFFF"/>
</linearGradient>
<linearGradient id="paint2_linear_77_2" x1="444.08" y1="266.407" x2="444.08" y2="143.984" gradientUnits="userSpaceOnUse">
<stop offset="0.000600962" stop-color="#0F15C7" stop-opacity="0"/>
<stop offset="1" stop-color="#00DFFF"/>
</linearGradient>
<linearGradient id="paint3_linear_77_2" x1="119.235" y1="336.613" x2="119.235" y2="214.19" gradientUnits="userSpaceOnUse">
<stop offset="0.000600962" stop-color="#0F15C7" stop-opacity="0"/>
<stop offset="1" stop-color="#00DFFF"/>
</linearGradient>
<linearGradient id="paint4_linear_77_2" x1="111.263" y1="75.3519" x2="111.263" y2="16.6279" gradientUnits="userSpaceOnUse">
<stop offset="0.000600962" stop-color="#0F15C7" stop-opacity="0"/>
<stop offset="1" stop-color="#00DFFF"/>
</linearGradient>
<linearGradient id="paint5_linear_77_2" x1="177.165" y1="49.2779" x2="177.165" y2="32.2554" gradientUnits="userSpaceOnUse">
<stop stop-color="#FFFFCE"/>
<stop offset="0.0995" stop-color="#F0F2D0"/>
<stop offset="0.291" stop-color="#C9CED4"/>
<stop offset="0.555" stop-color="#8995DC"/>
<stop offset="0.878" stop-color="#3347E6"/>
<stop offset="1" stop-color="#1028EA"/>
</linearGradient>
<linearGradient id="paint6_linear_77_2" x1="463.235" y1="251.247" x2="463.235" y2="248.927" gradientUnits="userSpaceOnUse">
<stop stop-color="#FFFFCE"/>
<stop offset="0.0995" stop-color="#F0F2D0"/>
<stop offset="0.291" stop-color="#C9CED4"/>
<stop offset="0.555" stop-color="#8995DC"/>
<stop offset="0.878" stop-color="#3347E6"/>
<stop offset="1" stop-color="#1028EA"/>
</linearGradient>
<linearGradient id="paint7_linear_77_2" x1="597.195" y1="187.534" x2="597.195" y2="163.612" gradientUnits="userSpaceOnUse">
<stop stop-color="#FFFFCE"/>
<stop offset="0.0995" stop-color="#F0F2D0"/>
<stop offset="0.291" stop-color="#C9CED4"/>
<stop offset="0.555" stop-color="#8995DC"/>
<stop offset="0.878" stop-color="#3347E6"/>
<stop offset="1" stop-color="#1028EA"/>
</linearGradient>
<linearGradient id="paint8_linear_77_2" x1="838.059" y1="141.548" x2="838.059" y2="132.543" gradientUnits="userSpaceOnUse">
<stop stop-color="#FFFFCE"/>
<stop offset="0.0995" stop-color="#F0F2D0"/>
<stop offset="0.291" stop-color="#C9CED4"/>
<stop offset="0.555" stop-color="#8995DC"/>
<stop offset="0.878" stop-color="#3347E6"/>
<stop offset="1" stop-color="#1028EA"/>
</linearGradient>
<linearGradient id="paint9_linear_77_2" x1="747.696" y1="66.3005" x2="747.696" y2="49.2778" gradientUnits="userSpaceOnUse">
<stop stop-color="#FFFFCE"/>
<stop offset="0.0995" stop-color="#F0F2D0"/>
<stop offset="0.291" stop-color="#C9CED4"/>
<stop offset="0.555" stop-color="#8995DC"/>
<stop offset="0.878" stop-color="#3347E6"/>
<stop offset="1" stop-color="#1028EA"/>
</linearGradient>
<linearGradient id="paint10_linear_77_2" x1="100.167" y1="85.3931" x2="100.167" y2="78.0795" gradientUnits="userSpaceOnUse">
<stop stop-color="#FFFFCE"/>
<stop offset="0.0995" stop-color="#F0F2D0"/>
<stop offset="0.291" stop-color="#C9CED4"/>
<stop offset="0.555" stop-color="#8995DC"/>
<stop offset="0.878" stop-color="#3347E6"/>
<stop offset="1" stop-color="#1028EA"/>
</linearGradient>
<linearGradient id="paint11_linear_77_2" x1="39.5669" y1="164.452" x2="39.5668" y2="157.139" gradientUnits="userSpaceOnUse">
<stop stop-color="#FFFFCE"/>
<stop offset="0.0995" stop-color="#F0F2D0"/>
<stop offset="0.291" stop-color="#C9CED4"/>
<stop offset="0.555" stop-color="#8995DC"/>
<stop offset="0.878" stop-color="#3347E6"/>
<stop offset="1" stop-color="#1028EA"/>
</linearGradient>
<linearGradient id="paint12_linear_77_2" x1="32.2534" y1="35.912" x2="32.2534" y2="28.5987" gradientUnits="userSpaceOnUse">
<stop stop-color="#FFFFCE"/>
<stop offset="0.0995" stop-color="#F0F2D0"/>
<stop offset="0.291" stop-color="#C9CED4"/>
<stop offset="0.555" stop-color="#8995DC"/>
<stop offset="0.878" stop-color="#3347E6"/>
<stop offset="1" stop-color="#1028EA"/>
</linearGradient>
<linearGradient id="paint13_linear_77_2" x1="515.447" y1="174.401" x2="515.447" y2="167.088" gradientUnits="userSpaceOnUse">
<stop stop-color="#FFFFCE"/>
<stop offset="0.0995" stop-color="#F0F2D0"/>
<stop offset="0.291" stop-color="#C9CED4"/>
<stop offset="0.555" stop-color="#8995DC"/>
<stop offset="0.878" stop-color="#3347E6"/>
<stop offset="1" stop-color="#1028EA"/>
</linearGradient>
<linearGradient id="paint14_linear_77_2" x1="613.85" y1="19.5681" x2="613.85" y2="12.2547" gradientUnits="userSpaceOnUse">
<stop stop-color="#FFFFCE"/>
<stop offset="0.0995" stop-color="#F0F2D0"/>
<stop offset="0.291" stop-color="#C9CED4"/>
<stop offset="0.555" stop-color="#8995DC"/>
<stop offset="0.878" stop-color="#3347E6"/>
<stop offset="1" stop-color="#1028EA"/>
</linearGradient>
<linearGradient id="paint15_linear_77_2" x1="247.486" y1="241.538" x2="247.486" y2="234.225" gradientUnits="userSpaceOnUse">
<stop stop-color="#FFFFCE"/>
<stop offset="0.0995" stop-color="#F0F2D0"/>
<stop offset="0.291" stop-color="#C9CED4"/>
<stop offset="0.555" stop-color="#8995DC"/>
<stop offset="0.878" stop-color="#3347E6"/>
<stop offset="1" stop-color="#1028EA"/>
</linearGradient>
<linearGradient id="paint16_linear_77_2" x1="685.282" y1="82.8684" x2="685.282" y2="75.555" gradientUnits="userSpaceOnUse">
<stop offset="0.0028" stop-color="#2227B6" stop-opacity="0.4"/>
<stop offset="0.3467" stop-color="#2274AD" stop-opacity="0.6069"/>
<stop offset="0.6566" stop-color="#22B2A5" stop-opacity="0.7934"/>
<stop offset="0.8821" stop-color="#22D8A1" stop-opacity="0.929"/>
<stop offset="1" stop-color="#22E79F"/>
</linearGradient>
<linearGradient id="paint17_linear_77_2" x1="796.337" y1="19.5682" x2="796.337" y2="12.2548" gradientUnits="userSpaceOnUse">
<stop offset="0.0028" stop-color="#2227B6" stop-opacity="0.4"/>
<stop offset="0.3467" stop-color="#2274AD" stop-opacity="0.6069"/>
<stop offset="0.6566" stop-color="#22B2A5" stop-opacity="0.7934"/>
<stop offset="0.8821" stop-color="#22D8A1" stop-opacity="0.929"/>
<stop offset="1" stop-color="#22E79F"/>
</linearGradient>
<linearGradient id="paint18_linear_77_2" x1="501.264" y1="16.0021" x2="501.264" y2="0.0153433" gradientUnits="userSpaceOnUse">
<stop offset="0.0028" stop-color="#2227B6" stop-opacity="0.4"/>
<stop offset="0.3467" stop-color="#2274AD" stop-opacity="0.6069"/>
<stop offset="0.6566" stop-color="#22B2A5" stop-opacity="0.7934"/>
<stop offset="0.8821" stop-color="#22D8A1" stop-opacity="0.929"/>
<stop offset="1" stop-color="#22E79F"/>
</linearGradient>
<linearGradient id="paint19_linear_77_2" x1="325.335" y1="206.564" x2="325.335" y2="190.577" gradientUnits="userSpaceOnUse">
<stop offset="0.0028" stop-color="#2227B6" stop-opacity="0.4"/>
<stop offset="0.3467" stop-color="#2274AD" stop-opacity="0.6069"/>
<stop offset="0.6566" stop-color="#22B2A5" stop-opacity="0.7934"/>
<stop offset="0.8821" stop-color="#22D8A1" stop-opacity="0.929"/>
<stop offset="1" stop-color="#22E79F"/>
</linearGradient>
<linearGradient id="paint20_linear_77_2" x1="255.949" y1="32.1567" x2="255.949" y2="23.6647" gradientUnits="userSpaceOnUse">
<stop offset="0.0028" stop-color="#2227B6" stop-opacity="0.4"/>
<stop offset="0.3467" stop-color="#2274AD" stop-opacity="0.6069"/>
<stop offset="0.6566" stop-color="#22B2A5" stop-opacity="0.7934"/>
<stop offset="0.8821" stop-color="#22D8A1" stop-opacity="0.929"/>
<stop offset="1" stop-color="#22E79F"/>
</linearGradient>
<linearGradient id="paint21_linear_77_2" x1="35.9101" y1="100.771" x2="35.91" y2="92.2796" gradientUnits="userSpaceOnUse">
<stop offset="0.0028" stop-color="#2227B6" stop-opacity="0.4"/>
<stop offset="0.3467" stop-color="#2274AD" stop-opacity="0.6069"/>
<stop offset="0.6566" stop-color="#22B2A5" stop-opacity="0.7934"/>
<stop offset="0.8821" stop-color="#22D8A1" stop-opacity="0.929"/>
<stop offset="1" stop-color="#22E79F"/>
</linearGradient>
<linearGradient id="paint22_linear_77_2" x1="83.147" y1="16.5006" x2="83.147" y2="8.00863" gradientUnits="userSpaceOnUse">
<stop offset="0.0028" stop-color="#2227B6" stop-opacity="0.4"/>
<stop offset="0.3467" stop-color="#2274AD" stop-opacity="0.6069"/>
<stop offset="0.6566" stop-color="#22B2A5" stop-opacity="0.7934"/>
<stop offset="0.8821" stop-color="#22D8A1" stop-opacity="0.929"/>
<stop offset="1" stop-color="#22E79F"/>
</linearGradient>
<linearGradient id="paint23_linear_77_2" x1="108.069" y1="36.5014" x2="108.069" y2="28.0094" gradientUnits="userSpaceOnUse">
<stop offset="0.0028" stop-color="#2227B6" stop-opacity="0.4"/>
<stop offset="0.3467" stop-color="#2274AD" stop-opacity="0.6069"/>
<stop offset="0.6566" stop-color="#22B2A5" stop-opacity="0.7934"/>
<stop offset="0.8821" stop-color="#22D8A1" stop-opacity="0.929"/>
<stop offset="1" stop-color="#22E79F"/>
</linearGradient>
<linearGradient id="paint24_linear_77_2" x1="295.199" y1="79.2118" x2="295.199" y2="71.8984" gradientUnits="userSpaceOnUse">
<stop stop-color="#FFFFCE"/>
<stop offset="0.0995" stop-color="#F0F2D0"/>
<stop offset="0.291" stop-color="#C9CED4"/>
<stop offset="0.555" stop-color="#8995DC"/>
<stop offset="0.878" stop-color="#3347E6"/>
<stop offset="1" stop-color="#1028EA"/>
</linearGradient>
<linearGradient id="paint25_linear_77_2" x1="240.084" y1="294.53" x2="240.084" y2="287.217" gradientUnits="userSpaceOnUse">
<stop stop-color="#FFFFCE"/>
<stop offset="0.0995" stop-color="#F0F2D0"/>
<stop offset="0.291" stop-color="#C9CED4"/>
<stop offset="0.555" stop-color="#8995DC"/>
<stop offset="0.878" stop-color="#3347E6"/>
<stop offset="1" stop-color="#1028EA"/>
</linearGradient>
<linearGradient id="paint26_linear_77_2" x1="364.165" y1="263.835" x2="364.165" y2="256.521" gradientUnits="userSpaceOnUse">
<stop stop-color="#FFFFCE"/>
<stop offset="0.0995" stop-color="#F0F2D0"/>
<stop offset="0.291" stop-color="#C9CED4"/>
<stop offset="0.555" stop-color="#8995DC"/>
<stop offset="0.878" stop-color="#3347E6"/>
<stop offset="1" stop-color="#1028EA"/>
</linearGradient>
<linearGradient id="paint27_linear_77_2" x1="418.302" y1="164.452" x2="418.302" y2="157.139" gradientUnits="userSpaceOnUse">
<stop stop-color="#FFFFCE"/>
<stop offset="0.0995" stop-color="#F0F2D0"/>
<stop offset="0.291" stop-color="#C9CED4"/>
<stop offset="0.555" stop-color="#8995DC"/>
<stop offset="0.878" stop-color="#3347E6"/>
<stop offset="1" stop-color="#1028EA"/>
</linearGradient>
<linearGradient id="paint28_linear_77_2" x1="522.684" y1="221.145" x2="522.684" y2="213.832" gradientUnits="userSpaceOnUse">
<stop stop-color="#FFFFCE"/>
<stop offset="0.0995" stop-color="#F0F2D0"/>
<stop offset="0.291" stop-color="#C9CED4"/>
<stop offset="0.555" stop-color="#8995DC"/>
<stop offset="0.878" stop-color="#3347E6"/>
<stop offset="1" stop-color="#1028EA"/>
</linearGradient>
<linearGradient id="paint29_linear_77_2" x1="342.532" y1="20.1573" x2="342.532" y2="12.8437" gradientUnits="userSpaceOnUse">
<stop stop-color="#FFFFCE"/>
<stop offset="0.0995" stop-color="#F0F2D0"/>
<stop offset="0.291" stop-color="#C9CED4"/>
<stop offset="0.555" stop-color="#8995DC"/>
<stop offset="0.878" stop-color="#3347E6"/>
<stop offset="1" stop-color="#1028EA"/>
</linearGradient>
</defs>
</svg>
