<svg width="849" height="348" viewBox="0 0 849 348" fill="none" xmlns="http://www.w3.org/2000/svg">
<path d="M784.396 139.506C768.152 103.057 750.097 77.725 731.263 77.725C720.508 77.725 710.138 83.8578 700.357 93.9377C691.489 77.7703 681.219 65.5574 670.411 65.5574C653.482 65.5574 638.565 87.7832 629.136 106.116C624.439 100.714 619.457 97.3538 614.326 97.3538C597.514 97.3538 583.126 124.127 576.247 139.506H784.396Z" fill="url(#paint0_linear_167_215)"/>
<path d="M462.93 257.791C426.804 176.73 386.646 120.389 344.762 120.389C320.842 120.389 297.779 134.027 276.025 156.445C256.303 120.487 233.46 93.3267 209.423 93.3267C171.775 93.3267 138.596 142.757 117.628 183.531C107.182 171.516 96.0997 164.044 84.6914 164.044C47.3005 164.044 15.3011 223.586 0 257.791H462.93Z" fill="url(#paint1_linear_167_215)"/>
<path d="M285.686 277.262C304.294 235.506 324.981 206.484 346.558 206.484C358.88 206.484 370.76 213.508 381.967 225.058C392.125 206.534 403.893 192.544 416.275 192.544C435.668 192.544 452.76 218.006 463.561 239.011C468.942 232.822 474.65 228.972 480.527 228.972C499.788 228.972 516.273 259.645 524.154 277.264L285.686 277.262Z" fill="url(#paint2_linear_167_215)"/>
<path d="M610.531 347.468C629.14 305.711 649.827 276.69 671.404 276.69C683.725 276.69 695.605 283.714 706.812 295.264C716.97 276.74 728.739 262.75 741.12 262.75C760.514 262.75 777.605 288.212 788.406 309.216C793.787 303.027 799.496 299.178 805.373 299.178C824.634 299.178 841.118 329.851 849 347.47L610.531 347.468Z" fill="url(#paint3_linear_167_215)"/>
<path d="M794.932 80.5597C786.007 60.5304 776.083 46.6085 765.733 46.6085C759.823 46.6085 754.124 49.9775 748.748 55.5176C743.875 46.632 738.232 39.9211 732.291 39.9211C722.989 39.9211 714.79 52.1359 709.609 62.2104C707.028 59.2419 704.29 57.3951 701.47 57.3951C692.231 57.3951 684.324 72.1072 680.543 80.5597H794.932Z" fill="url(#paint4_linear_167_215)"/>
<path fill-rule="evenodd" clip-rule="evenodd" d="M673.457 39.785L680.32 40.7509L673.457 41.7187L671.81 49.2632L670.674 41.7187L663.298 40.7509L670.674 39.785L671.81 32.2405L673.457 39.785Z" fill="url(#paint5_linear_167_215)"/>
<path fill-rule="evenodd" clip-rule="evenodd" d="M385.961 249.942L386.896 250.074L385.961 250.205L385.736 251.234L385.582 250.205L384.576 250.074L385.582 249.942L385.736 248.915L385.961 249.942Z" fill="url(#paint6_linear_167_215)"/>
<path fill-rule="evenodd" clip-rule="evenodd" d="M254.091 174.202L263.737 175.559L254.091 176.918L251.776 187.52L250.178 176.918L239.815 175.559L250.178 174.202L251.776 163.598L254.091 174.202Z" fill="url(#paint7_linear_167_215)"/>
<path fill-rule="evenodd" clip-rule="evenodd" d="M11.7815 136.519L15.4115 137.032L11.7815 137.543L10.9098 141.534L10.3081 137.543L6.40625 137.032L10.3081 136.519L10.9098 132.528L11.7815 136.519Z" fill="url(#paint8_linear_167_215)"/>
<path fill-rule="evenodd" clip-rule="evenodd" d="M102.921 56.8077L109.784 57.7736L102.921 58.7414L101.274 66.2859L100.137 58.7414L92.7614 57.7736L100.137 56.8077L101.274 49.2632L102.921 56.8077Z" fill="url(#paint9_linear_167_215)"/>
<path fill-rule="evenodd" clip-rule="evenodd" d="M749.517 81.3059L752.465 81.7209L749.517 82.1359L748.808 85.3781L748.321 82.1359L745.153 81.7209L748.321 81.3059L748.808 78.0637L749.517 81.3059Z" fill="url(#paint10_linear_167_215)"/>
<path fill-rule="evenodd" clip-rule="evenodd" d="M810.117 160.367L813.066 160.782L810.117 161.197L809.409 164.439L808.921 161.197L805.752 160.782L808.921 160.367L809.409 157.125L810.117 160.367Z" fill="url(#paint11_linear_167_215)"/>
<path fill-rule="evenodd" clip-rule="evenodd" d="M817.43 31.8254L820.379 32.2404L817.43 32.6554L816.723 35.8976L816.234 32.6554L813.066 32.2404L816.234 31.8254L816.723 28.5833L817.43 31.8254Z" fill="url(#paint12_linear_167_215)"/>
<path fill-rule="evenodd" clip-rule="evenodd" d="M334.233 170.316L337.182 170.731L334.233 171.146L333.524 174.388L333.037 171.146L329.867 170.731L333.037 170.316L333.524 167.074L334.233 170.316Z" fill="url(#paint13_linear_167_215)"/>
<path fill-rule="evenodd" clip-rule="evenodd" d="M235.828 15.4807L238.777 15.8957L235.828 16.3107L235.121 19.5529L234.632 16.3107L231.464 15.8957L234.632 15.4807L235.121 12.2385L235.828 15.4807Z" fill="url(#paint14_linear_167_215)"/>
<path fill-rule="evenodd" clip-rule="evenodd" d="M602.195 237.452L605.145 237.869L602.195 238.284L601.488 241.524L600.999 238.284L597.831 237.869L600.999 237.452L601.488 234.211L602.195 237.452Z" fill="url(#paint15_linear_167_215)"/>
<path fill-rule="evenodd" clip-rule="evenodd" d="M164.395 78.7815L167.344 79.1965L164.395 79.6115L163.689 82.8537L163.199 79.6115L160.031 79.1965L163.199 78.7815L163.689 75.5393L164.395 78.7815Z" fill="url(#paint16_linear_167_215)"/>
<path fill-rule="evenodd" clip-rule="evenodd" d="M53.3388 15.4807L56.2874 15.8957L53.3388 16.3107L52.632 19.5529L52.1427 16.3107L48.9749 15.8957L52.1427 15.4807L52.632 12.2385L53.3388 15.4807Z" fill="url(#paint17_linear_167_215)"/>
<path fill-rule="evenodd" clip-rule="evenodd" d="M349.255 7.08601L355.701 7.99215L349.255 8.9001L347.707 15.9861L346.64 8.9001L339.713 7.99215L346.64 7.08601L347.707 0L349.255 7.08601Z" fill="url(#paint18_linear_167_215)"/>
<path fill-rule="evenodd" clip-rule="evenodd" d="M525.186 197.649L531.632 198.557L525.186 199.465L523.638 206.549L522.57 199.465L515.644 198.557L522.57 197.649L523.638 190.563L525.186 197.649Z" fill="url(#paint19_linear_167_215)"/>
<path fill-rule="evenodd" clip-rule="evenodd" d="M593.846 27.4125L597.271 27.8946L593.846 28.3767L593.025 32.1408L592.457 28.3767L588.778 27.8946L592.457 27.4125L593.025 23.6484L593.846 27.4125Z" fill="url(#paint20_linear_167_215)"/>
<path fill-rule="evenodd" clip-rule="evenodd" d="M813.887 96.029L817.312 96.5111L813.887 96.9931L813.066 100.757L812.499 96.9931L808.82 96.5111L812.499 96.029L813.066 92.2649L813.887 96.029Z" fill="url(#paint21_linear_167_215)"/>
<path fill-rule="evenodd" clip-rule="evenodd" d="M766.65 11.7563L770.075 12.2384L766.65 12.7204L765.829 16.4845L765.262 12.7204L761.583 12.2384L765.262 11.7563L765.829 7.99219L766.65 11.7563Z" fill="url(#paint22_linear_167_215)"/>
<path fill-rule="evenodd" clip-rule="evenodd" d="M741.727 31.7582L745.153 32.2403L741.727 32.7224L740.906 36.4865L740.339 32.7224L736.66 32.2403L740.339 31.7582L740.906 27.9941L741.727 31.7582Z" fill="url(#paint23_linear_167_215)"/>
<path fill-rule="evenodd" clip-rule="evenodd" d="M554.483 75.1244L557.431 75.5394L554.483 75.9562L553.774 79.1966L553.287 75.9562L550.119 75.5394L553.287 75.1244L553.774 71.884L554.483 75.1244Z" fill="url(#paint24_linear_167_215)"/>
<path fill-rule="evenodd" clip-rule="evenodd" d="M609.598 290.445L612.546 290.86L609.598 291.275L608.889 294.517L608.402 291.275L605.234 290.86L608.402 290.445L608.889 287.205L609.598 290.445Z" fill="url(#paint25_linear_167_215)"/>
<path fill-rule="evenodd" clip-rule="evenodd" d="M485.515 259.75L488.465 260.165L485.515 260.581L484.808 263.823L484.319 260.581L481.151 260.165L484.319 259.75L484.808 256.508L485.515 259.75Z" fill="url(#paint26_linear_167_215)"/>
<path fill-rule="evenodd" clip-rule="evenodd" d="M431.378 160.367L434.327 160.782L431.378 161.197L430.67 164.439L430.182 161.197L427.014 160.782L430.182 160.367L430.67 157.125L431.378 160.367Z" fill="url(#paint27_linear_167_215)"/>
<path fill-rule="evenodd" clip-rule="evenodd" d="M326.995 217.06L329.943 217.475L326.995 217.89L326.286 221.132L325.799 217.89L322.631 217.475L325.799 217.06L326.286 213.818L326.995 217.06Z" fill="url(#paint28_linear_167_215)"/>
<path fill-rule="evenodd" clip-rule="evenodd" d="M507.148 16.0695L510.098 16.4845L507.148 16.8995L506.441 20.1416L505.952 16.8995L502.784 16.4845L505.952 16.0695L506.441 12.8291L507.148 16.0695Z" fill="url(#paint29_linear_167_215)"/>
<defs>
<linearGradient id="paint0_linear_167_215" x1="680.321" y1="130.031" x2="680.321" y2="23.1723" gradientUnits="userSpaceOnUse">
<stop offset="0.000600962" stop-color="#0F15C7" stop-opacity="0"/>
<stop offset="1" stop-color="#00DFFF"/>
</linearGradient>
<linearGradient id="paint1_linear_167_215" x1="231.464" y1="236.717" x2="231.464" y2="-0.939026" gradientUnits="userSpaceOnUse">
<stop offset="0.000600962" stop-color="#0F15C7" stop-opacity="0"/>
<stop offset="1" stop-color="#00DFFF"/>
</linearGradient>
<linearGradient id="paint2_linear_167_215" x1="404.92" y1="266.407" x2="404.92" y2="143.984" gradientUnits="userSpaceOnUse">
<stop offset="0.000600962" stop-color="#0F15C7" stop-opacity="0"/>
<stop offset="1" stop-color="#00DFFF"/>
</linearGradient>
<linearGradient id="paint3_linear_167_215" x1="729.765" y1="336.613" x2="729.765" y2="214.19" gradientUnits="userSpaceOnUse">
<stop offset="0.000600962" stop-color="#0F15C7" stop-opacity="0"/>
<stop offset="1" stop-color="#00DFFF"/>
</linearGradient>
<linearGradient id="paint4_linear_167_215" x1="737.737" y1="75.3517" x2="737.737" y2="16.6277" gradientUnits="userSpaceOnUse">
<stop offset="0.000600962" stop-color="#0F15C7" stop-opacity="0"/>
<stop offset="1" stop-color="#00DFFF"/>
</linearGradient>
<linearGradient id="paint5_linear_167_215" x1="671.835" y1="49.2779" x2="671.835" y2="32.2553" gradientUnits="userSpaceOnUse">
<stop stop-color="#FFFFCE"/>
<stop offset="0.0995" stop-color="#F0F2D0"/>
<stop offset="0.291" stop-color="#C9CED4"/>
<stop offset="0.555" stop-color="#8995DC"/>
<stop offset="0.878" stop-color="#3347E6"/>
<stop offset="1" stop-color="#1028EA"/>
</linearGradient>
<linearGradient id="paint6_linear_167_215" x1="385.765" y1="251.247" x2="385.765" y2="248.927" gradientUnits="userSpaceOnUse">
<stop stop-color="#FFFFCE"/>
<stop offset="0.0995" stop-color="#F0F2D0"/>
<stop offset="0.291" stop-color="#C9CED4"/>
<stop offset="0.555" stop-color="#8995DC"/>
<stop offset="0.878" stop-color="#3347E6"/>
<stop offset="1" stop-color="#1028EA"/>
</linearGradient>
<linearGradient id="paint7_linear_167_215" x1="251.805" y1="187.534" x2="251.805" y2="163.612" gradientUnits="userSpaceOnUse">
<stop stop-color="#FFFFCE"/>
<stop offset="0.0995" stop-color="#F0F2D0"/>
<stop offset="0.291" stop-color="#C9CED4"/>
<stop offset="0.555" stop-color="#8995DC"/>
<stop offset="0.878" stop-color="#3347E6"/>
<stop offset="1" stop-color="#1028EA"/>
</linearGradient>
<linearGradient id="paint8_linear_167_215" x1="10.9409" y1="141.548" x2="10.9409" y2="132.543" gradientUnits="userSpaceOnUse">
<stop stop-color="#FFFFCE"/>
<stop offset="0.0995" stop-color="#F0F2D0"/>
<stop offset="0.291" stop-color="#C9CED4"/>
<stop offset="0.555" stop-color="#8995DC"/>
<stop offset="0.878" stop-color="#3347E6"/>
<stop offset="1" stop-color="#1028EA"/>
</linearGradient>
<linearGradient id="paint9_linear_167_215" x1="101.304" y1="66.3005" x2="101.304" y2="49.2778" gradientUnits="userSpaceOnUse">
<stop stop-color="#FFFFCE"/>
<stop offset="0.0995" stop-color="#F0F2D0"/>
<stop offset="0.291" stop-color="#C9CED4"/>
<stop offset="0.555" stop-color="#8995DC"/>
<stop offset="0.878" stop-color="#3347E6"/>
<stop offset="1" stop-color="#1028EA"/>
</linearGradient>
<linearGradient id="paint10_linear_167_215" x1="748.833" y1="85.393" x2="748.833" y2="78.0794" gradientUnits="userSpaceOnUse">
<stop stop-color="#FFFFCE"/>
<stop offset="0.0995" stop-color="#F0F2D0"/>
<stop offset="0.291" stop-color="#C9CED4"/>
<stop offset="0.555" stop-color="#8995DC"/>
<stop offset="0.878" stop-color="#3347E6"/>
<stop offset="1" stop-color="#1028EA"/>
</linearGradient>
<linearGradient id="paint11_linear_167_215" x1="809.433" y1="164.452" x2="809.433" y2="157.139" gradientUnits="userSpaceOnUse">
<stop stop-color="#FFFFCE"/>
<stop offset="0.0995" stop-color="#F0F2D0"/>
<stop offset="0.291" stop-color="#C9CED4"/>
<stop offset="0.555" stop-color="#8995DC"/>
<stop offset="0.878" stop-color="#3347E6"/>
<stop offset="1" stop-color="#1028EA"/>
</linearGradient>
<linearGradient id="paint12_linear_167_215" x1="816.747" y1="35.912" x2="816.747" y2="28.5987" gradientUnits="userSpaceOnUse">
<stop stop-color="#FFFFCE"/>
<stop offset="0.0995" stop-color="#F0F2D0"/>
<stop offset="0.291" stop-color="#C9CED4"/>
<stop offset="0.555" stop-color="#8995DC"/>
<stop offset="0.878" stop-color="#3347E6"/>
<stop offset="1" stop-color="#1028EA"/>
</linearGradient>
<linearGradient id="paint13_linear_167_215" x1="333.553" y1="174.401" x2="333.553" y2="167.088" gradientUnits="userSpaceOnUse">
<stop stop-color="#FFFFCE"/>
<stop offset="0.0995" stop-color="#F0F2D0"/>
<stop offset="0.291" stop-color="#C9CED4"/>
<stop offset="0.555" stop-color="#8995DC"/>
<stop offset="0.878" stop-color="#3347E6"/>
<stop offset="1" stop-color="#1028EA"/>
</linearGradient>
<linearGradient id="paint14_linear_167_215" x1="235.15" y1="19.5682" x2="235.15" y2="12.2548" gradientUnits="userSpaceOnUse">
<stop stop-color="#FFFFCE"/>
<stop offset="0.0995" stop-color="#F0F2D0"/>
<stop offset="0.291" stop-color="#C9CED4"/>
<stop offset="0.555" stop-color="#8995DC"/>
<stop offset="0.878" stop-color="#3347E6"/>
<stop offset="1" stop-color="#1028EA"/>
</linearGradient>
<linearGradient id="paint15_linear_167_215" x1="601.514" y1="241.538" x2="601.514" y2="234.225" gradientUnits="userSpaceOnUse">
<stop stop-color="#FFFFCE"/>
<stop offset="0.0995" stop-color="#F0F2D0"/>
<stop offset="0.291" stop-color="#C9CED4"/>
<stop offset="0.555" stop-color="#8995DC"/>
<stop offset="0.878" stop-color="#3347E6"/>
<stop offset="1" stop-color="#1028EA"/>
</linearGradient>
<linearGradient id="paint16_linear_167_215" x1="163.718" y1="82.8683" x2="163.718" y2="75.5549" gradientUnits="userSpaceOnUse">
<stop offset="0.0028" stop-color="#2227B6" stop-opacity="0.4"/>
<stop offset="0.3467" stop-color="#2274AD" stop-opacity="0.6069"/>
<stop offset="0.6566" stop-color="#22B2A5" stop-opacity="0.7934"/>
<stop offset="0.8821" stop-color="#22D8A1" stop-opacity="0.929"/>
<stop offset="1" stop-color="#22E79F"/>
</linearGradient>
<linearGradient id="paint17_linear_167_215" x1="52.6628" y1="19.5684" x2="52.6626" y2="12.2549" gradientUnits="userSpaceOnUse">
<stop offset="0.0028" stop-color="#2227B6" stop-opacity="0.4"/>
<stop offset="0.3467" stop-color="#2274AD" stop-opacity="0.6069"/>
<stop offset="0.6566" stop-color="#22B2A5" stop-opacity="0.7934"/>
<stop offset="0.8821" stop-color="#22D8A1" stop-opacity="0.929"/>
<stop offset="1" stop-color="#22E79F"/>
</linearGradient>
<linearGradient id="paint18_linear_167_215" x1="347.736" y1="16.0021" x2="347.736" y2="0.0153433" gradientUnits="userSpaceOnUse">
<stop offset="0.0028" stop-color="#2227B6" stop-opacity="0.4"/>
<stop offset="0.3467" stop-color="#2274AD" stop-opacity="0.6069"/>
<stop offset="0.6566" stop-color="#22B2A5" stop-opacity="0.7934"/>
<stop offset="0.8821" stop-color="#22D8A1" stop-opacity="0.929"/>
<stop offset="1" stop-color="#22E79F"/>
</linearGradient>
<linearGradient id="paint19_linear_167_215" x1="523.665" y1="206.564" x2="523.665" y2="190.577" gradientUnits="userSpaceOnUse">
<stop offset="0.0028" stop-color="#2227B6" stop-opacity="0.4"/>
<stop offset="0.3467" stop-color="#2274AD" stop-opacity="0.6069"/>
<stop offset="0.6566" stop-color="#22B2A5" stop-opacity="0.7934"/>
<stop offset="0.8821" stop-color="#22D8A1" stop-opacity="0.929"/>
<stop offset="1" stop-color="#22E79F"/>
</linearGradient>
<linearGradient id="paint20_linear_167_215" x1="593.051" y1="32.1567" x2="593.051" y2="23.6647" gradientUnits="userSpaceOnUse">
<stop offset="0.0028" stop-color="#2227B6" stop-opacity="0.4"/>
<stop offset="0.3467" stop-color="#2274AD" stop-opacity="0.6069"/>
<stop offset="0.6566" stop-color="#22B2A5" stop-opacity="0.7934"/>
<stop offset="0.8821" stop-color="#22D8A1" stop-opacity="0.929"/>
<stop offset="1" stop-color="#22E79F"/>
</linearGradient>
<linearGradient id="paint21_linear_167_215" x1="813.09" y1="100.771" x2="813.09" y2="92.2796" gradientUnits="userSpaceOnUse">
<stop offset="0.0028" stop-color="#2227B6" stop-opacity="0.4"/>
<stop offset="0.3467" stop-color="#2274AD" stop-opacity="0.6069"/>
<stop offset="0.6566" stop-color="#22B2A5" stop-opacity="0.7934"/>
<stop offset="0.8821" stop-color="#22D8A1" stop-opacity="0.929"/>
<stop offset="1" stop-color="#22E79F"/>
</linearGradient>
<linearGradient id="paint22_linear_167_215" x1="765.853" y1="16.5006" x2="765.853" y2="8.00863" gradientUnits="userSpaceOnUse">
<stop offset="0.0028" stop-color="#2227B6" stop-opacity="0.4"/>
<stop offset="0.3467" stop-color="#2274AD" stop-opacity="0.6069"/>
<stop offset="0.6566" stop-color="#22B2A5" stop-opacity="0.7934"/>
<stop offset="0.8821" stop-color="#22D8A1" stop-opacity="0.929"/>
<stop offset="1" stop-color="#22E79F"/>
</linearGradient>
<linearGradient id="paint23_linear_167_215" x1="740.931" y1="36.5013" x2="740.931" y2="28.0093" gradientUnits="userSpaceOnUse">
<stop offset="0.0028" stop-color="#2227B6" stop-opacity="0.4"/>
<stop offset="0.3467" stop-color="#2274AD" stop-opacity="0.6069"/>
<stop offset="0.6566" stop-color="#22B2A5" stop-opacity="0.7934"/>
<stop offset="0.8821" stop-color="#22D8A1" stop-opacity="0.929"/>
<stop offset="1" stop-color="#22E79F"/>
</linearGradient>
<linearGradient id="paint24_linear_167_215" x1="553.801" y1="79.2116" x2="553.801" y2="71.8983" gradientUnits="userSpaceOnUse">
<stop stop-color="#FFFFCE"/>
<stop offset="0.0995" stop-color="#F0F2D0"/>
<stop offset="0.291" stop-color="#C9CED4"/>
<stop offset="0.555" stop-color="#8995DC"/>
<stop offset="0.878" stop-color="#3347E6"/>
<stop offset="1" stop-color="#1028EA"/>
</linearGradient>
<linearGradient id="paint25_linear_167_215" x1="608.916" y1="294.53" x2="608.916" y2="287.217" gradientUnits="userSpaceOnUse">
<stop stop-color="#FFFFCE"/>
<stop offset="0.0995" stop-color="#F0F2D0"/>
<stop offset="0.291" stop-color="#C9CED4"/>
<stop offset="0.555" stop-color="#8995DC"/>
<stop offset="0.878" stop-color="#3347E6"/>
<stop offset="1" stop-color="#1028EA"/>
</linearGradient>
<linearGradient id="paint26_linear_167_215" x1="484.835" y1="263.835" x2="484.835" y2="256.521" gradientUnits="userSpaceOnUse">
<stop stop-color="#FFFFCE"/>
<stop offset="0.0995" stop-color="#F0F2D0"/>
<stop offset="0.291" stop-color="#C9CED4"/>
<stop offset="0.555" stop-color="#8995DC"/>
<stop offset="0.878" stop-color="#3347E6"/>
<stop offset="1" stop-color="#1028EA"/>
</linearGradient>
<linearGradient id="paint27_linear_167_215" x1="430.698" y1="164.452" x2="430.698" y2="157.139" gradientUnits="userSpaceOnUse">
<stop stop-color="#FFFFCE"/>
<stop offset="0.0995" stop-color="#F0F2D0"/>
<stop offset="0.291" stop-color="#C9CED4"/>
<stop offset="0.555" stop-color="#8995DC"/>
<stop offset="0.878" stop-color="#3347E6"/>
<stop offset="1" stop-color="#1028EA"/>
</linearGradient>
<linearGradient id="paint28_linear_167_215" x1="326.316" y1="221.145" x2="326.316" y2="213.832" gradientUnits="userSpaceOnUse">
<stop stop-color="#FFFFCE"/>
<stop offset="0.0995" stop-color="#F0F2D0"/>
<stop offset="0.291" stop-color="#C9CED4"/>
<stop offset="0.555" stop-color="#8995DC"/>
<stop offset="0.878" stop-color="#3347E6"/>
<stop offset="1" stop-color="#1028EA"/>
</linearGradient>
<linearGradient id="paint29_linear_167_215" x1="506.468" y1="20.1573" x2="506.468" y2="12.8438" gradientUnits="userSpaceOnUse">
<stop stop-color="#FFFFCE"/>
<stop offset="0.0995" stop-color="#F0F2D0"/>
<stop offset="0.291" stop-color="#C9CED4"/>
<stop offset="0.555" stop-color="#8995DC"/>
<stop offset="0.878" stop-color="#3347E6"/>
<stop offset="1" stop-color="#1028EA"/>
</linearGradient>
</defs>
</svg>
