<svg width="316" height="363" viewBox="0 0 316 363" fill="none" xmlns="http://www.w3.org/2000/svg">
<g filter="url(#filter0_d_34_1491)">
<path d="M69.7891 -1.14258L70.1104 -0.864258C76.8956 4.99519 84.0147 11.5646 91.5088 18.958H91.5098C105.419 32.6841 116.7 48.4248 125.795 65.3975L126.669 67.0439L126.763 67.2227L126.789 67.4219C126.813 67.5965 126.883 68.2857 126.381 68.8994C125.834 69.5668 124.947 69.758 123.926 69.6494H123.924C123.587 69.613 123.272 69.4694 123.055 69.3574C122.807 69.2301 122.536 69.0637 122.254 68.8779C121.69 68.5058 120.999 67.9977 120.231 67.4238C118.679 66.2626 116.761 64.7891 114.683 63.374C112.602 61.9574 110.414 60.636 108.35 59.7793C106.255 58.91 104.465 58.5936 103.098 58.9482C100.206 59.6991 98.4152 62.2437 98.8691 65.501C99.3315 68.8181 102.187 73.1106 109.251 76.8242C112.818 78.6983 116.2 80.3007 119.358 81.8027C122.507 83.3002 125.446 84.704 128.077 86.1641C133.337 89.0823 137.535 92.3107 139.896 97.2207L139.921 97.2725L139.94 97.3262C146.815 116.264 151.605 136.042 154.765 155.821L155.065 157.735L155.078 157.815L155.079 157.897C155.081 158.048 155.075 158.613 154.816 159.158C154.678 159.45 154.44 159.792 154.039 160.031C153.624 160.279 153.148 160.35 152.665 160.281V160.28C152.358 160.237 152.119 160.081 152.047 160.034C151.927 159.957 151.805 159.864 151.69 159.771C151.458 159.582 151.172 159.324 150.85 159.024C150.204 158.424 149.331 157.574 148.303 156.586C146.233 154.595 143.468 151.98 140.353 149.39C137.233 146.796 133.788 144.252 130.364 142.395C126.92 140.526 123.615 139.415 120.74 139.535C117.718 139.662 116.086 140.526 115.343 141.525C114.628 142.486 114.5 143.898 115.268 145.731C116.822 149.443 121.787 154.082 129.531 157.087C137.091 160.02 143.762 162.556 148.733 166.162C153.792 169.832 157.118 174.624 158.035 181.987L158.038 182.006L158.039 182.023C159.221 194.792 159.806 207.391 159.925 219.602L159.926 219.723L159.901 219.84C159.865 220.017 159.771 220.344 159.51 220.645C159.213 220.985 158.775 221.208 158.243 221.214L158.242 221.215L158.241 221.214C157.992 221.216 157.803 221.14 157.717 221.1C157.618 221.054 157.54 221.002 157.491 220.967C157.393 220.896 157.308 220.818 157.248 220.759C157.123 220.637 156.984 220.479 156.843 220.314C156.558 219.982 156.174 219.507 155.734 218.968C154.841 217.873 153.646 216.431 152.266 214.984C150.881 213.534 149.336 212.107 147.749 211.03C146.148 209.944 144.602 209.282 143.2 209.217C142.482 209.183 142.247 209.336 142.199 209.378C142.187 209.389 142.084 209.469 142.105 209.865C142.127 210.275 142.281 210.858 142.605 211.608C142.924 212.345 143.379 213.179 143.94 214.077C146.2 217.69 149.979 221.993 152.613 224.432C155.143 226.772 156.967 228.698 158.128 230.894C159.308 233.126 159.753 235.539 159.737 238.772V238.787L159.736 238.801C158.716 273.73 154.174 304.055 149.547 323.537C147.241 333.245 144.891 340.365 142.9 344.009C142.401 344.923 141.889 345.684 141.362 346.22C140.871 346.718 140.14 347.246 139.241 347.125C138.313 347 137.762 346.266 137.445 345.61C137.11 344.917 136.872 343.989 136.701 342.879C135.463 334.853 131.215 322.517 124.44 307.239C117.678 291.988 108.436 273.887 97.2686 254.358L97.2676 254.356C96.8478 253.619 96.6787 252.79 96.8535 251.772C97.0182 250.815 97.484 249.71 98.2549 248.353C99.7983 245.634 102.778 241.543 107.926 234.984C112.917 228.626 115.245 220.571 115.178 214.524C115.144 211.483 114.507 209.115 113.471 207.715C112.966 207.033 112.384 206.601 111.737 206.392C111.171 206.208 110.482 206.171 109.642 206.372L109.271 206.474C107.302 207.078 105.367 209.019 103.538 211.97C101.737 214.876 100.167 218.554 98.8398 222.285C97.516 226.008 96.4495 229.739 95.6436 232.732C95.2399 234.232 94.9054 235.534 94.6318 236.571C94.3673 237.574 94.1464 238.387 93.9834 238.82C93.6584 239.684 93.205 240.349 92.5869 240.751C91.9411 241.171 91.2641 241.208 90.7109 241.092C90.1858 240.982 89.757 240.735 89.4854 240.549C89.3435 240.451 89.2282 240.359 89.1465 240.289C89.1056 240.254 89.072 240.224 89.0469 240.201C89.0342 240.189 89.0231 240.179 89.0146 240.171L88.999 240.155L88.9971 240.154V240.153L89.7998 239.341L88.9961 240.152L88.8936 240.051L88.8203 239.928C81.006 226.886 72.4384 213.392 63.2773 199.837L62.75 199.058L62.8301 198.976C62.6381 198.464 62.5469 197.883 62.5938 197.188C62.6641 196.145 63.0441 194.879 63.7607 193.223C65.1971 189.902 68.1662 184.618 73.5771 175.682L74.0684 174.854C79.0615 166.261 81.5463 156.468 81.5742 149.681C81.5814 147.937 81.4255 146.424 81.126 145.201C80.8235 143.966 80.393 143.102 79.9082 142.572C79.4556 142.078 78.9427 141.854 78.3066 141.877C77.6169 141.902 76.6684 142.225 75.4385 143.097L75.4395 143.098C72.9699 144.848 70.7498 147.627 68.79 151.001C66.8367 154.364 65.1813 158.251 63.8115 162.143C61.0712 169.929 59.5111 177.629 58.9844 180.957C58.7063 182.715 58.2801 183.964 57.7002 184.794C57.0791 185.683 56.2556 186.115 55.3662 186.086C54.5798 186.06 53.9394 185.677 53.5654 185.401C53.3886 185.271 53.2431 185.141 53.1338 185.038L53.0293 185.004L52.8135 184.698C41.5493 168.773 29.5449 152.963 17.042 137.893L14.5352 134.889L14.5342 134.888C14.5328 134.886 14.531 134.884 14.5293 134.882C14.5257 134.877 14.5217 134.871 14.5166 134.865C14.5065 134.853 14.493 134.837 14.4775 134.817C14.4467 134.778 14.4055 134.724 14.3564 134.656C14.2585 134.521 14.1285 134.328 13.9824 134.081C13.6905 133.588 13.3327 132.873 13.0488 131.959C12.477 130.118 12.2134 127.501 13.3232 124.319C13.8872 122.7 15.0544 120.764 16.5244 118.584C18.0042 116.39 19.8771 113.827 21.8984 110.972C25.9616 105.232 30.7268 98.1712 34.6572 89.8428C36.5493 85.8312 37.1907 81.397 36.9775 77.3594C36.7635 73.3066 35.6951 69.7513 34.2734 67.4863C33.5607 66.3508 32.8088 65.6192 32.1123 65.2607C31.4622 64.9262 30.8386 64.8986 30.1836 65.2109C29.473 65.5498 28.6181 66.3442 27.7295 67.8916C26.8478 69.4271 25.9833 71.6166 25.2109 74.5986C22.0363 86.8509 17.6738 97.6556 13.8936 105.611C12.0031 109.59 10.2553 112.863 8.86914 115.254C8.17642 116.449 7.57073 117.429 7.08008 118.171C6.66809 118.794 6.30031 119.305 6.0127 119.626L5.89453 119.752C5.44077 120.207 4.9221 120.498 4.36035 120.614C3.80586 120.729 3.28713 120.657 2.84863 120.512C2.00732 120.233 1.34947 119.65 0.99707 119.294L0.980469 119.276L0.963867 119.258C0.848711 119.131 0.735792 119.005 0.62793 118.884L-0.853516 117.211L-1.14258 116.887V-1.14258H69.7891Z" fill="url(#paint0_linear_34_1491)" stroke="white" stroke-width="2.28464"/>
<path d="M188.769 -1.14258L189.091 -0.864258C197.762 6.63583 206.016 14.6075 213.838 22.876L215.396 24.5342L215.452 24.5938L215.499 24.6602C215.585 24.7836 215.898 25.2529 215.991 25.8486C216.041 26.167 216.037 26.5839 215.841 27.0078C215.638 27.4465 215.284 27.7741 214.846 27.9893L214.845 27.9883C214.566 28.1247 214.282 28.1306 214.196 28.1328C214.054 28.1364 213.9 28.1276 213.753 28.1152C213.454 28.0901 213.074 28.039 212.639 27.9727C211.767 27.8397 210.566 27.6287 209.16 27.3906C206.328 26.9112 202.571 26.306 198.537 25.9199C194.498 25.5334 190.22 25.3712 186.345 25.7637C182.446 26.1585 179.09 27.1032 176.782 28.8213C174.355 30.6275 173.492 32.2605 173.44 33.5049C173.391 34.7008 174.08 35.9395 175.747 37.0225C179.121 39.2145 185.835 40.2526 193.927 38.375C201.825 36.5416 208.767 34.8812 214.905 35.0625C220.957 35.2412 226.257 37.2052 231.041 42.3906L231.503 42.9023L231.526 42.9297C239.693 52.8163 247.269 62.8985 254.244 72.9238L254.316 73.0273L254.363 73.1436C254.43 73.3075 254.535 73.6284 254.488 74.0225C254.435 74.4685 254.199 74.8973 253.767 75.2021L253.763 75.2051C253.557 75.3487 253.357 75.3908 253.263 75.4062C253.155 75.4239 253.062 75.4254 253.001 75.4238C252.88 75.4206 252.766 75.4034 252.684 75.3887C252.512 75.3579 252.307 75.3067 252.099 75.25C251.676 75.1353 251.091 74.9586 250.424 74.7607C249.069 74.3589 247.271 73.8389 245.315 73.4209C243.355 73.0017 241.274 72.6932 239.355 72.6973C237.421 72.7013 235.77 73.0239 234.575 73.7588C233.963 74.1354 233.855 74.3947 233.839 74.4561C233.835 74.4718 233.795 74.5966 234.036 74.9121C234.285 75.2385 234.74 75.6329 235.431 76.0703C236.109 76.4997 236.954 76.9336 237.924 77.3594C241.826 79.073 247.371 80.5004 250.922 81.0322L252.163 81.2275C254.973 81.6939 257.197 82.2535 259.118 83.2695C261.21 84.3764 262.858 85.9778 264.546 88.3838L264.884 88.876L264.899 88.8994C283.723 118.339 297.043 145.957 304.188 164.663C307.749 173.984 309.816 181.192 310.223 185.324C310.325 186.36 310.33 187.277 310.196 188.017C310.071 188.705 309.764 189.553 308.953 189.959C308.116 190.378 307.248 190.082 306.616 189.718C305.949 189.333 305.229 188.701 304.463 187.88C298.92 181.942 288.462 174.139 274.261 165.328C260.085 156.533 242.254 146.778 222.03 136.926L220.59 136.225L220.83 135.983C220.605 135.712 220.404 135.394 220.233 135.021C219.83 134.136 219.593 132.961 219.466 131.404C219.21 128.288 219.369 123.231 219.931 114.913C220.475 106.848 217.863 98.8811 214.403 93.9219C212.663 91.4267 210.803 89.8288 209.158 89.2549C208.358 88.9755 207.634 88.946 206.981 89.1367C206.329 89.3276 205.65 89.7673 204.99 90.5928V90.5938C203.703 92.2023 203.195 94.8956 203.346 98.3633C203.494 101.779 204.267 105.703 205.271 109.533C206.274 113.355 207.493 117.038 208.513 119.966C209.023 121.432 209.48 122.697 209.838 123.708C210.184 124.686 210.458 125.482 210.567 125.932C210.785 126.828 210.785 127.633 210.501 128.313C210.204 129.024 209.666 129.436 209.144 129.652C208.648 129.858 208.154 129.895 207.824 129.894C207.652 129.893 207.505 129.882 207.398 129.87C207.345 129.864 207.3 129.859 207.267 129.854C207.25 129.851 207.234 129.849 207.223 129.847C207.217 129.846 207.212 129.844 207.208 129.844C207.206 129.843 207.204 129.843 207.202 129.843H207.198L207.404 128.719L207.197 129.842L207.056 129.816L206.925 129.756C193.121 123.379 178.445 117.049 163.24 111.005H163.239C162.444 110.687 161.749 110.168 161.184 109.205C160.654 108.304 160.255 107.044 159.914 105.271C159.231 101.719 158.71 95.6798 158.151 85.248C157.601 74.991 154.038 65.0646 150.116 59.2578C149.14 57.8126 148.161 56.6499 147.225 55.8076C146.279 54.9573 145.437 54.4861 144.738 54.3213C144.086 54.1674 143.535 54.2699 143.022 54.6475C142.467 55.0568 141.867 55.8593 141.341 57.2725C140.286 60.11 140.015 63.6553 140.295 67.5469C140.574 71.4263 141.395 75.571 142.454 79.5586C144.573 87.5357 147.619 94.7766 149.059 97.8242C149.819 99.4335 150.17 100.705 150.158 101.718C150.146 102.802 149.709 103.623 148.957 104.1C148.293 104.521 147.547 104.565 147.083 104.548C146.878 104.54 146.697 104.516 146.553 104.494L146.444 104.531L146.066 104.391C126.572 97.119 106.456 90.428 86.3877 84.7832L86.0996 84.7021L86.0732 84.6758C85.9194 84.6189 85.715 84.5381 85.4736 84.4248C84.9549 84.1812 84.2577 83.7909 83.5088 83.1953C82.0003 81.9954 80.3091 79.9813 79.4326 76.7275V76.7266C78.9881 75.0717 78.8629 72.8145 78.8506 70.1855C78.8382 67.5392 78.9422 64.3666 79.0049 60.8691C79.1308 53.8386 79.092 45.3201 77.6504 36.2256C76.9554 31.8453 74.9895 27.8201 72.54 24.6035C70.0812 21.3746 67.1954 19.0382 64.7451 17.9668C63.517 17.4299 62.4843 17.2479 61.707 17.3438C60.9814 17.4333 60.4504 17.762 60.085 18.3887C59.6886 19.0688 59.4284 20.2072 59.5654 21.9863C59.7014 23.7516 60.2209 26.0472 61.2617 28.9463C65.5371 40.8592 68.0157 52.245 69.3711 60.9482C70.0489 65.3007 70.4467 68.9897 70.6475 71.7461C70.7478 73.1236 70.7995 74.2751 70.8115 75.1641C70.8216 75.9102 70.8061 76.5399 70.749 76.9668L70.7217 77.1377C70.6025 77.7689 70.3383 78.3017 69.9395 78.7139C69.5456 79.1208 69.0759 79.3535 68.6318 79.4805C67.7799 79.724 66.9081 79.6125 66.417 79.5166L66.3838 79.5098L66.3516 79.501C66.2771 79.4818 66.2013 79.4635 66.1201 79.4434C66.0445 79.4246 65.9638 79.4036 65.8828 79.3828V79.3838C37.9862 72.5632 16.277 63.4089 -0.573242 53.6426L-1.14258 53.3125V-1.14258H188.769Z" fill="url(#paint1_linear_34_1491)" stroke="white" stroke-width="2.28464"/>
</g>
<defs>
<filter id="filter0_d_34_1491" x="-6.28464" y="-2.28464" width="321.725" height="364.57" filterUnits="userSpaceOnUse" color-interpolation-filters="sRGB">
<feFlood flood-opacity="0" result="BackgroundImageFix"/>
<feColorMatrix in="SourceAlpha" type="matrix" values="0 0 0 0 0 0 0 0 0 0 0 0 0 0 0 0 0 0 127 0" result="hardAlpha"/>
<feOffset dy="10"/>
<feGaussianBlur stdDeviation="2"/>
<feComposite in2="hardAlpha" operator="out"/>
<feColorMatrix type="matrix" values="0 0 0 0 0 0 0 0 0 0 0 0 0 0 0 0 0 0 0.7 0"/>
<feBlend mode="normal" in2="BackgroundImageFix" result="effect1_dropShadow_34_1491"/>
<feBlend mode="normal" in="SourceGraphic" in2="effect1_dropShadow_34_1491" result="shape"/>
</filter>
<linearGradient id="paint0_linear_34_1491" x1="110.479" y1="206.654" x2="57.9228" y2="79.1569" gradientUnits="userSpaceOnUse">
<stop stop-color="#FF6E7D"/>
<stop offset="1" stop-color="#64364C"/>
</linearGradient>
<linearGradient id="paint1_linear_34_1491" x1="209.036" y1="99.3092" x2="64.5122" y2="7.48263" gradientUnits="userSpaceOnUse">
<stop stop-color="#FFDA7A"/>
<stop offset="1" stop-color="#FFA923"/>
</linearGradient>
</defs>
</svg>
